# MagicaVoxel @ Ephtracy

# group
o 

# material
mtllib 타일.mtl
usemtl palette

# normals
vn -1 0 0
vn 1 0 0
vn 0 0 1
vn 0 0 -1
vn 0 -1 0
vn 0 1 0

# texcoords
vt 0.396484 0.5
vt 0.724609 0.5
vt 0.767578 0.5
vt 0.791016 0.5
vt 0.794922 0.5

# verts
v -0.5 0 0.5
v -0.5 0 -0.5
v -0.5 0.2 0.4
v -0.5 0.2 0.3
v -0.5 0.2 -0.1
v -0.5 0.2 -0.2
v -0.5 0.3 0.4
v -0.5 0.3 0.3
v -0.5 0.3 0.2
v -0.5 0.3 0.1
v -0.5 0.3 -0.1
v -0.5 0.3 -0.2
v -0.5 0.3 -0.3
v -0.5 0.3 -0.5
v -0.5 0.4 0.5
v -0.5 0.4 0.4
v -0.5 0.4 -0.1
v -0.5 0.4 -0.2
v -0.5 0.5 0.5
v -0.5 0.5 0.4
v -0.5 0.5 0.3
v -0.5 0.5 0.2
v -0.5 0.5 0.1
v -0.5 0.5 -0.1
v -0.5 0.5 -0.2
v -0.5 0.6 0.5
v -0.5 0.6 0.3
v -0.5 0.6 0.2
v -0.5 0.6 0.1
v -0.5 0.6 0
v -0.5 0.6 -0.2
v -0.5 0.6 -0.3
v -0.5 0.7 0.2
v -0.5 0.7 0.1
v -0.5 0.7 0
v -0.5 0.7 -0.2
v -0.5 0.7 -0.4
v -0.5 0.7 -0.5
v -0.5 0.8 0.5
v -0.5 0.8 0.4
v -0.5 0.8 0.3
v -0.5 0.8 0.2
v -0.5 0.8 0.1
v -0.5 0.8 0
v -0.5 0.8 -0.2
v -0.5 0.8 -0.3
v -0.5 0.8 -0.4
v -0.5 0.9 0.4
v -0.5 0.9 0.2
v -0.5 0.9 0
v -0.5 0.9 -0.3
v -0.5 1 0.5
v -0.5 1 -0.5
v 0.5 0 0.5
v 0.5 0 -0.5
v 0.5 0.3 0.3
v 0.5 0.3 0.2
v 0.5 0.3 0
v 0.5 0.3 -0.1
v 0.5 0.3 -0.3
v 0.5 0.3 -0.5
v 0.5 0.4 0.3
v 0.5 0.4 0.2
v 0.5 0.4 0
v 0.5 0.4 -0.1
v 0.5 0.4 -0.2
v 0.5 0.4 -0.3
v 0.5 0.4 -0.5
v 0.5 0.5 0.4
v 0.5 0.5 0.2
v 0.5 0.5 0.1
v 0.5 0.5 0
v 0.5 0.5 -0.1
v 0.5 0.5 -0.2
v 0.5 0.5 -0.4
v 0.5 0.5 -0.5
v 0.5 0.6 0.5
v 0.5 0.6 0.4
v 0.5 0.6 0.2
v 0.5 0.6 0.1
v 0.5 0.6 0
v 0.5 0.6 -0.2
v 0.5 0.6 -0.4
v 0.5 0.7 0.2
v 0.5 0.7 0.1
v 0.5 0.7 0
v 0.5 0.7 -0.2
v 0.5 0.7 -0.4
v 0.5 0.7 -0.5
v 0.5 0.8 0.4
v 0.5 0.8 0.2
v 0.5 0.8 0
v 0.5 0.8 -0.2
v 0.5 0.8 -0.4
v 0.5 0.8 -0.5
v 0.5 0.9 0.5
v 0.5 0.9 0.4
v 0.5 0.9 -0.2
v 0.5 0.9 -0.4
v 0.5 0.9 -0.5
v 0.5 1 0.5
v 0.5 1 0.4
v 0.5 1 -0.5
v -0.5 0 0.5
v -0.5 0.4 0.5
v -0.5 0.5 0.5
v -0.5 0.6 0.5
v -0.5 0.8 0.5
v -0.5 1 0.5
v -0.4 0.4 0.5
v -0.4 0.5 0.5
v -0.4 0.6 0.5
v -0.4 0.7 0.5
v -0.4 0.8 0.5
v -0.3 0.6 0.5
v -0.3 0.7 0.5
v -0.3 1 0.5
v -0.2 0.7 0.5
v -0.2 0.8 0.5
v -0.1 0.3 0.5
v -0.1 0.5 0.5
v -0.1 0.7 0.5
v -0.1 0.8 0.5
v -0.1 0.9 0.5
v 0 0.3 0.5
v 0 0.5 0.5
v 0 0.6 0.5
v 0 0.7 0.5
v 0 0.8 0.5
v 0 0.9 0.5
v 0.1 0.6 0.5
v 0.1 0.7 0.5
v 0.1 0.8 0.5
v 0.2 0.4 0.5
v 0.2 0.6 0.5
v 0.3 0.3 0.5
v 0.3 0.4 0.5
v 0.3 0.6 0.5
v 0.3 0.7 0.5
v 0.3 0.8 0.5
v 0.3 0.9 0.5
v 0.3 1 0.5
v 0.4 0.3 0.5
v 0.4 0.4 0.5
v 0.4 0.6 0.5
v 0.4 0.7 0.5
v 0.4 0.8 0.5
v 0.4 0.9 0.5
v 0.4 1 0.5
v 0.5 0 0.5
v 0.5 0.6 0.5
v 0.5 0.9 0.5
v 0.5 1 0.5
v -0.5 0 -0.5
v -0.5 0.3 -0.5
v -0.5 0.7 -0.5
v -0.5 1 -0.5
v -0.4 0.3 -0.5
v -0.4 0.4 -0.5
v -0.3 0.8 -0.5
v -0.3 0.9 -0.5
v -0.2 0.7 -0.5
v -0.2 0.8 -0.5
v -0.2 0.9 -0.5
v -0.1 0.3 -0.5
v -0.1 0.4 -0.5
v -0.1 0.5 -0.5
v 0 0.3 -0.5
v 0 0.4 -0.5
v 0 0.5 -0.5
v 0 0.7 -0.5
v 0 0.8 -0.5
v 0.1 0.2 -0.5
v 0.1 0.4 -0.5
v 0.1 0.5 -0.5
v 0.1 0.6 -0.5
v 0.2 0.6 -0.5
v 0.2 0.7 -0.5
v 0.2 0.8 -0.5
v 0.2 0.9 -0.5
v 0.4 0.2 -0.5
v 0.4 0.3 -0.5
v 0.4 0.5 -0.5
v 0.4 0.6 -0.5
v 0.4 0.7 -0.5
v 0.4 0.8 -0.5
v 0.4 0.9 -0.5
v 0.5 0 -0.5
v 0.5 0.3 -0.5
v 0.5 0.4 -0.5
v 0.5 0.5 -0.5
v 0.5 0.7 -0.5
v 0.5 0.8 -0.5
v 0.5 0.9 -0.5
v 0.5 1 -0.5
v -0.5 0 0.5
v 0.5 0 0.5
v -0.5 0 -0.5
v 0.5 0 -0.5
v -0.5 1 0.5
v -0.3 1 0.5
v 0.3 1 0.5
v 0.4 1 0.5
v 0.5 1 0.5
v 0.4 1 0.4
v 0.5 1 0.4
v -0.3 1 0.3
v 0.3 1 0.3
v -0.3 1 0.1
v -0.1 1 0.1
v 0.1 1 0.1
v 0.3 1 0.1
v 0.4 1 0.1
v -0.1 1 0
v 0.1 1 0
v 0.3 1 0
v 0.4 1 0
v -0.1 1 -0.1
v 0 1 -0.1
v -0.4 1 -0.2
v -0.1 1 -0.2
v 0.3 1 -0.2
v 0.4 1 -0.2
v 0.3 1 -0.3
v 0.4 1 -0.3
v -0.4 1 -0.4
v 0 1 -0.4
v -0.5 1 -0.5
v 0.5 1 -0.5

# faces
f 3/1/1 2/1/1 1/1/1
f 4/1/1 2/1/1 3/1/1
f 5/1/1 2/1/1 4/1/1
f 6/1/1 2/1/1 5/1/1
f 7/1/1 3/1/1 1/1/1
f 7/2/1 4/2/1 3/2/1
f 8/1/1 5/1/1 4/1/1
f 8/2/1 4/2/1 7/2/1
f 9/1/1 5/1/1 8/1/1
f 10/1/1 5/1/1 9/1/1
f 11/2/1 6/2/1 5/2/1
f 11/1/1 5/1/1 10/1/1
f 12/1/1 2/1/1 6/1/1
f 12/2/1 6/2/1 11/2/1
f 13/1/1 2/1/1 12/1/1
f 14/1/1 2/1/1 13/1/1
f 15/1/1 7/1/1 1/1/1
f 15/1/1 8/1/1 7/1/1
f 15/1/1 9/1/1 8/1/1
f 16/1/1 9/1/1 15/1/1
f 17/1/1 11/1/1 10/1/1
f 17/1/1 13/1/1 12/1/1
f 17/1/1 12/1/1 11/1/1
f 18/1/1 13/1/1 17/1/1
f 19/2/1 16/2/1 15/2/1
f 20/1/1 9/1/1 16/1/1
f 20/2/1 16/2/1 19/2/1
f 21/1/1 9/1/1 20/1/1
f 22/2/1 10/2/1 9/2/1
f 22/1/1 9/1/1 21/1/1
f 23/1/1 17/1/1 10/1/1
f 23/2/1 10/2/1 22/2/1
f 24/2/1 18/2/1 17/2/1
f 24/1/1 17/1/1 23/1/1
f 25/1/1 13/1/1 18/1/1
f 25/2/1 18/2/1 24/2/1
f 26/1/1 21/1/1 20/1/1
f 26/1/1 20/1/1 19/1/1
f 27/5/1 22/5/1 21/5/1
f 27/1/1 21/1/1 26/1/1
f 28/1/1 23/1/1 22/1/1
f 28/5/1 22/5/1 27/5/1
f 29/3/1 24/3/1 23/3/1
f 29/1/1 23/1/1 28/1/1
f 29/3/1 25/3/1 24/3/1
f 30/3/1 25/3/1 29/3/1
f 31/1/1 13/1/1 25/1/1
f 31/3/1 25/3/1 30/3/1
f 32/3/1 14/3/1 13/3/1
f 32/1/1 13/1/1 31/1/1
f 33/1/1 30/1/1 29/1/1
f 33/2/1 28/2/1 27/2/1
f 33/1/1 29/1/1 28/1/1
f 34/1/1 30/1/1 33/1/1
f 35/3/1 31/3/1 30/3/1
f 35/1/1 30/1/1 34/1/1
f 35/3/1 32/3/1 31/3/1
f 36/3/1 32/3/1 35/3/1
f 37/3/1 14/3/1 32/3/1
f 37/3/1 32/3/1 36/3/1
f 38/3/1 14/3/1 37/3/1
f 39/3/1 27/3/1 26/3/1
f 40/3/1 27/3/1 39/3/1
f 41/2/1 34/2/1 33/2/1
f 41/3/1 27/3/1 40/3/1
f 41/2/1 33/2/1 27/2/1
f 42/2/1 34/2/1 41/2/1
f 43/3/1 36/3/1 35/3/1
f 43/2/1 34/2/1 42/2/1
f 43/3/1 35/3/1 34/3/1
f 44/3/1 36/3/1 43/3/1
f 45/2/1 37/2/1 36/2/1
f 45/3/1 36/3/1 44/3/1
f 46/2/1 37/2/1 45/2/1
f 47/5/1 38/5/1 37/5/1
f 47/2/1 37/2/1 46/2/1
f 48/3/1 42/3/1 41/3/1
f 48/5/1 40/5/1 39/5/1
f 48/3/1 41/3/1 40/3/1
f 49/5/1 44/5/1 43/5/1
f 49/3/1 42/3/1 48/3/1
f 49/5/1 43/5/1 42/5/1
f 50/3/1 45/3/1 44/3/1
f 50/5/1 44/5/1 49/5/1
f 50/3/1 46/3/1 45/3/1
f 51/5/1 47/5/1 46/5/1
f 51/3/1 46/3/1 50/3/1
f 52/5/1 50/5/1 49/5/1
f 52/5/1 49/5/1 48/5/1
f 52/5/1 51/5/1 50/5/1
f 52/5/1 48/5/1 39/5/1
f 53/5/1 38/5/1 47/5/1
f 53/5/1 51/5/1 52/5/1
f 53/5/1 47/5/1 51/5/1
f 54/1/2 55/1/2 56/1/2
f 56/1/2 55/1/2 57/1/2
f 57/1/2 55/1/2 58/1/2
f 58/1/2 55/1/2 59/1/2
f 59/1/2 55/1/2 60/1/2
f 60/1/2 55/1/2 61/1/2
f 54/1/2 56/1/2 62/1/2
f 56/2/2 57/2/2 62/2/2
f 57/1/2 58/1/2 63/1/2
f 62/2/2 57/2/2 63/2/2
f 58/3/2 59/3/2 64/3/2
f 63/1/2 58/1/2 64/1/2
f 59/1/2 60/1/2 65/1/2
f 64/3/2 59/3/2 65/3/2
f 65/1/2 60/1/2 66/1/2
f 60/2/2 61/2/2 67/2/2
f 66/1/2 60/1/2 67/1/2
f 67/2/2 61/2/2 68/2/2
f 54/1/2 62/1/2 69/1/2
f 62/1/2 63/1/2 69/1/2
f 63/1/2 64/1/2 69/1/2
f 64/1/2 65/1/2 69/1/2
f 69/1/2 65/1/2 70/1/2
f 70/1/2 65/1/2 71/1/2
f 71/1/2 65/1/2 72/1/2
f 65/2/2 66/2/2 73/2/2
f 72/1/2 65/1/2 73/1/2
f 67/1/2 68/1/2 74/1/2
f 73/2/2 66/2/2 74/2/2
f 66/1/2 67/1/2 74/1/2
f 74/1/2 68/1/2 75/1/2
f 75/1/2 68/1/2 76/1/2
f 54/1/2 69/1/2 77/1/2
f 69/2/2 70/2/2 78/2/2
f 77/1/2 69/1/2 78/1/2
f 70/1/2 71/1/2 79/1/2
f 78/2/2 70/2/2 79/2/2
f 71/3/2 72/3/2 80/3/2
f 79/1/2 71/1/2 80/1/2
f 72/1/2 73/1/2 81/1/2
f 80/3/2 72/3/2 81/3/2
f 73/1/2 74/1/2 81/1/2
f 74/1/2 75/1/2 81/1/2
f 81/1/2 75/1/2 82/1/2
f 75/3/2 76/3/2 83/3/2
f 82/1/2 75/1/2 83/1/2
f 78/2/2 79/2/2 84/2/2
f 79/2/2 80/2/2 84/2/2
f 81/1/2 82/1/2 85/1/2
f 84/2/2 80/2/2 85/2/2
f 80/1/2 81/1/2 85/1/2
f 85/1/2 82/1/2 86/1/2
f 82/3/2 83/3/2 87/3/2
f 86/1/2 82/1/2 87/1/2
f 83/3/2 76/3/2 88/3/2
f 87/3/2 83/3/2 88/3/2
f 88/3/2 76/3/2 89/3/2
f 77/3/2 78/3/2 90/3/2
f 78/2/2 84/2/2 90/2/2
f 85/3/2 86/3/2 91/3/2
f 90/2/2 84/2/2 91/2/2
f 84/3/2 85/3/2 91/3/2
f 86/5/2 87/5/2 92/5/2
f 91/3/2 86/3/2 92/3/2
f 87/3/2 88/3/2 93/3/2
f 92/5/2 87/5/2 93/5/2
f 88/5/2 89/5/2 94/5/2
f 93/3/2 88/3/2 94/3/2
f 94/5/2 89/5/2 95/5/2
f 90/3/2 91/3/2 96/3/2
f 77/3/2 90/3/2 96/3/2
f 92/3/2 93/3/2 96/3/2
f 91/3/2 92/3/2 96/3/2
f 96/3/2 93/3/2 97/3/2
f 93/5/2 94/5/2 98/5/2
f 97/3/2 93/3/2 98/3/2
f 94/3/2 95/3/2 99/3/2
f 98/5/2 94/5/2 99/5/2
f 99/3/2 95/3/2 100/3/2
f 96/2/2 97/2/2 101/2/2
f 97/5/2 98/5/2 102/5/2
f 101/2/2 97/2/2 102/2/2
f 98/5/2 99/5/2 102/5/2
f 99/5/2 100/5/2 102/5/2
f 102/5/2 100/5/2 103/5/2
f 110/1/3 105/1/3 104/1/3
f 110/2/3 106/2/3 105/2/3
f 111/1/3 107/1/3 106/1/3
f 111/2/3 106/2/3 110/2/3
f 112/3/3 108/3/3 107/3/3
f 112/1/3 107/1/3 111/1/3
f 113/3/3 108/3/3 112/3/3
f 114/5/3 109/5/3 108/5/3
f 114/3/3 108/3/3 113/3/3
f 115/2/3 113/2/3 112/2/3
f 115/1/3 111/1/3 110/1/3
f 115/1/3 112/1/3 111/1/3
f 116/5/3 114/5/3 113/5/3
f 116/2/3 113/2/3 115/2/3
f 117/5/3 109/5/3 114/5/3
f 117/5/3 114/5/3 116/5/3
f 118/1/3 116/1/3 115/1/3
f 118/3/3 117/3/3 116/3/3
f 119/3/3 117/3/3 118/3/3
f 120/1/3 115/1/3 110/1/3
f 120/1/3 110/1/3 104/1/3
f 120/1/3 118/1/3 115/1/3
f 121/1/3 118/1/3 120/1/3
f 122/2/3 119/2/3 118/2/3
f 122/1/3 118/1/3 121/1/3
f 123/3/3 117/3/3 119/3/3
f 123/2/3 119/2/3 122/2/3
f 124/3/3 117/3/3 123/3/3
f 125/2/3 121/2/3 120/2/3
f 125/1/3 120/1/3 104/1/3
f 126/1/3 122/1/3 121/1/3
f 126/2/3 121/2/3 125/2/3
f 127/1/3 122/1/3 126/1/3
f 128/3/3 123/3/3 122/3/3
f 128/1/3 122/1/3 127/1/3
f 129/5/3 124/5/3 123/5/3
f 129/3/3 123/3/3 128/3/3
f 130/3/3 117/3/3 124/3/3
f 130/5/3 124/5/3 129/5/3
f 131/2/3 129/2/3 128/2/3
f 131/2/3 128/2/3 127/2/3
f 131/1/3 127/1/3 126/1/3
f 131/1/3 126/1/3 125/1/3
f 132/2/3 129/2/3 131/2/3
f 133/3/3 130/3/3 129/3/3
f 133/2/3 129/2/3 132/2/3
f 134/1/3 132/1/3 131/1/3
f 134/1/3 131/1/3 125/1/3
f 135/1/3 132/1/3 134/1/3
f 136/1/3 125/1/3 104/1/3
f 136/1/3 134/1/3 125/1/3
f 137/2/3 135/2/3 134/2/3
f 137/1/3 134/1/3 136/1/3
f 138/1/3 132/1/3 135/1/3
f 138/2/3 135/2/3 137/2/3
f 139/3/3 133/3/3 132/3/3
f 139/1/3 132/1/3 138/1/3
f 140/3/3 130/3/3 133/3/3
f 140/3/3 133/3/3 139/3/3
f 141/3/3 117/3/3 130/3/3
f 141/3/3 130/3/3 140/3/3
f 142/3/3 117/3/3 141/3/3
f 143/2/3 137/2/3 136/2/3
f 143/1/3 136/1/3 104/1/3
f 144/1/3 138/1/3 137/1/3
f 144/2/3 137/2/3 143/2/3
f 145/2/3 139/2/3 138/2/3
f 145/1/3 138/1/3 144/1/3
f 146/3/3 140/3/3 139/3/3
f 146/2/3 139/2/3 145/2/3
f 147/2/3 141/2/3 140/2/3
f 147/3/3 140/3/3 146/3/3
f 148/5/3 142/5/3 141/5/3
f 148/2/3 141/2/3 147/2/3
f 149/5/3 142/5/3 148/5/3
f 150/1/3 145/1/3 144/1/3
f 150/1/3 144/1/3 143/1/3
f 150/1/3 143/1/3 104/1/3
f 151/3/3 148/3/3 147/3/3
f 151/1/3 145/1/3 150/1/3
f 151/3/3 147/3/3 146/3/3
f 151/3/3 146/3/3 145/3/3
f 152/2/3 149/2/3 148/2/3
f 152/3/3 148/3/3 151/3/3
f 153/2/3 149/2/3 152/2/3
f 154/1/4 155/1/4 158/1/4
f 155/3/4 156/3/4 158/3/4
f 158/3/4 156/3/4 159/3/4
f 156/5/4 157/5/4 160/5/4
f 160/5/4 157/5/4 161/5/4
f 159/3/4 156/3/4 162/3/4
f 156/5/4 160/5/4 162/5/4
f 160/1/4 161/1/4 163/1/4
f 162/5/4 160/5/4 163/5/4
f 161/5/4 157/5/4 164/5/4
f 163/1/4 161/1/4 164/1/4
f 154/1/4 158/1/4 165/1/4
f 158/2/4 159/2/4 165/2/4
f 162/3/4 163/3/4 166/3/4
f 165/2/4 159/2/4 166/2/4
f 163/3/4 164/3/4 166/3/4
f 159/3/4 162/3/4 166/3/4
f 166/3/4 164/3/4 167/3/4
f 154/1/4 165/1/4 168/1/4
f 165/3/4 166/3/4 168/3/4
f 166/2/4 167/2/4 169/2/4
f 168/3/4 166/3/4 169/3/4
f 167/3/4 164/3/4 170/3/4
f 169/2/4 167/2/4 170/2/4
f 170/3/4 164/3/4 171/3/4
f 171/3/4 164/3/4 172/3/4
f 168/1/4 169/1/4 173/1/4
f 154/1/4 168/1/4 173/1/4
f 169/1/4 170/1/4 173/1/4
f 173/1/4 170/1/4 174/1/4
f 170/3/4 171/3/4 175/3/4
f 174/1/4 170/1/4 175/1/4
f 175/3/4 171/3/4 176/3/4
f 175/2/4 176/2/4 177/2/4
f 176/3/4 171/3/4 177/3/4
f 171/2/4 172/2/4 178/2/4
f 177/3/4 171/3/4 178/3/4
f 172/3/4 164/3/4 179/3/4
f 178/2/4 172/2/4 179/2/4
f 164/5/4 157/5/4 180/5/4
f 179/3/4 164/3/4 180/3/4
f 173/2/4 174/2/4 181/2/4
f 154/1/4 173/1/4 181/1/4
f 181/2/4 174/2/4 182/2/4
f 175/2/4 177/2/4 183/2/4
f 174/1/4 175/1/4 183/1/4
f 177/1/4 178/1/4 184/1/4
f 183/2/4 177/2/4 184/2/4
f 178/5/4 179/5/4 185/5/4
f 184/1/4 178/1/4 185/1/4
f 179/5/4 180/5/4 185/5/4
f 185/5/4 180/5/4 186/5/4
f 180/5/4 157/5/4 187/5/4
f 186/5/4 180/5/4 187/5/4
f 154/1/4 181/1/4 188/1/4
f 181/1/4 182/1/4 188/1/4
f 182/2/4 174/2/4 189/2/4
f 188/1/4 182/1/4 189/1/4
f 174/1/4 183/1/4 190/1/4
f 189/2/4 174/2/4 190/2/4
f 183/3/4 184/3/4 191/3/4
f 190/1/4 183/1/4 191/1/4
f 184/3/4 185/3/4 191/3/4
f 185/5/4 186/5/4 192/5/4
f 191/3/4 185/3/4 192/3/4
f 186/3/4 187/3/4 193/3/4
f 192/5/4 186/5/4 193/5/4
f 187/5/4 157/5/4 194/5/4
f 193/3/4 187/3/4 194/3/4
f 194/5/4 157/5/4 195/5/4
f 198/1/5 197/1/5 196/1/5
f 199/1/5 197/1/5 198/1/5
f 202/5/6 203/5/6 205/5/6
f 203/2/6 204/2/6 205/2/6
f 205/2/6 204/2/6 206/2/6
f 200/5/6 201/5/6 207/5/6
f 201/3/6 202/3/6 207/3/6
f 205/5/6 206/5/6 208/5/6
f 207/3/6 202/3/6 208/3/6
f 202/5/6 205/5/6 208/5/6
f 200/5/6 207/5/6 209/5/6
f 207/4/6 208/4/6 209/4/6
f 209/4/6 208/4/6 210/4/6
f 210/4/6 208/4/6 211/4/6
f 208/5/6 206/5/6 212/5/6
f 211/4/6 208/4/6 212/4/6
f 212/5/6 206/5/6 213/5/6
f 210/3/6 211/3/6 214/3/6
f 209/5/6 210/5/6 214/5/6
f 211/5/6 212/5/6 215/5/6
f 214/3/6 211/3/6 215/3/6
f 212/3/6 213/3/6 216/3/6
f 215/5/6 212/5/6 216/5/6
f 213/5/6 206/5/6 217/5/6
f 216/3/6 213/3/6 217/3/6
f 215/5/6 216/5/6 218/5/6
f 214/5/6 215/5/6 218/5/6
f 216/5/6 217/5/6 218/5/6
f 209/5/6 214/5/6 218/5/6
f 218/5/6 217/5/6 219/5/6
f 200/5/6 209/5/6 220/5/6
f 209/5/6 218/5/6 220/5/6
f 218/3/6 219/3/6 221/3/6
f 220/5/6 218/5/6 221/5/6
f 219/5/6 217/5/6 222/5/6
f 217/5/6 206/5/6 223/5/6
f 222/5/6 217/5/6 223/5/6
f 219/5/6 222/5/6 224/5/6
f 222/3/6 223/3/6 224/3/6
f 223/5/6 206/5/6 225/5/6
f 224/3/6 223/3/6 225/3/6
f 200/5/6 220/5/6 226/5/6
f 220/3/6 221/3/6 226/3/6
f 219/5/6 224/5/6 227/5/6
f 226/3/6 221/3/6 227/3/6
f 221/3/6 219/3/6 227/3/6
f 224/5/6 225/5/6 227/5/6
f 200/5/6 226/5/6 228/5/6
f 226/5/6 227/5/6 228/5/6
f 227/5/6 225/5/6 229/5/6
f 228/5/6 227/5/6 229/5/6
f 225/5/6 206/5/6 229/5/6
